<?xml version="1.0" encoding="utf-8"?>
<!-- Generator: Adobe Illustrator 16.0.0, SVG Export Plug-In . SVG Version: 6.00 Build 0)  -->
<!DOCTYPE svg PUBLIC "-//W3C//DTD SVG 1.1//EN" "http://www.w3.org/Graphics/SVG/1.1/DTD/svg11.dtd">
<svg version="1.1" id="Layer_1" xmlns="http://www.w3.org/2000/svg" xmlns:xlink="http://www.w3.org/1999/xlink" x="0px" y="0px"
	 width="135px" height="135px" viewBox="0 0 135 135" style="enable-background:new 0 0 135 135;" xml:space="preserve">
<style type="text/css">
<![CDATA[
	.st0{fill:#465652;}
	.st1{fill:#AAB9BA;}
	.st2{fill:#47C67B;}
	.st3{fill:#AAC8D1;}
	.st4{fill:none;stroke:#E83834;stroke-width:6;stroke-linecap:round;stroke-linejoin:round;stroke-miterlimit:10;}
	.st5{fill:#7BC67B;}
	.st6{fill:#7BC7FF;}
	.st7{fill:#7C34C1;}
	.st8{fill:#7C8D96;}
	.st9{fill:#AD2707;}
	.st10{fill:#ADB8BC;}
	.st11{fill:#107510;}
	.st12{fill:#7FE5D8;}
	.st13{fill:#AF4AD1;}
	.st14{fill:#E02B7E;}
	.st15{fill:#E04038;}
	.st16{fill:#AFD7DD;}
	.st17{fill:#E0A010;}
	.st18{fill:#E0D5A4;}
	.st19{fill:#12B2B2;}
	.st20{fill:#12D66B;}
	.st21{fill:#E1A9FF;}
	.st22{fill:#1362A8;}
	.st23{fill:#E2378D;}
	.st24{fill:#E29C37;}
	.st25{fill:#E2B90E;}
	.st26{fill:#E2BF91;}
	.st27{fill:#E2CBAA;}
	.st28{fill:#14A594;}
	.st29{fill:#E4E9ED;}
	.st30{fill:#4A5D60;}
	.st31{fill:#E5B076;}
	.st32{fill:#E5B1C4;}
	.st33{fill:#E5E4C3;}
	.st34{fill:#4B6466;}
	.st35{fill:#E6FF2E;}
	.st36{fill:#18AA67;}
	.st37{fill:#E86207;}
	.st38{fill:#E8A113;}
	.st39{fill:#E8B5A6;}
	.st40{fill:#E8E8ED;}
	.st41{fill:#4E5154;}
	.st42{fill:#E9F1F4;}
	.st43{fill:#4F4B48;}
	.st44{fill:#4F74E8;}
	.st45{fill:#808E93;}
	.st46{fill:#80949B;}
	.st47{fill:#80EDAC;}
	.st48{fill:#B122E0;}
	.st49{fill:#B2C4CC;}
	.st50{fill:#83D839;}
	.st51{fill:#B3C6C6;}
	.st52{fill:none;stroke:#33363A;stroke-width:3;stroke-linecap:round;stroke-linejoin:round;stroke-miterlimit:10;}
	.st53{fill:#1A8E1C;}
	.st54{fill:#1A93D6;}
	.st55{fill:#B50B0B;}
	.st56{fill:#1AD88F;}
	.st57{fill:#B5DAF4;}
	.st58{fill:#EA7B1F;}
	.st59{fill:#EA81BD;}
	.st60{fill:#87B8D6;}
	.st61{fill:#87C3F4;}
	.st62{fill:#EAC79D;}
	.st63{fill:#EADF11;}
	.st64{fill:#EAE4C5;}
	.st65{fill:#B78094;}
	.st66{fill:#8844D8;}
	.st67{fill:#EBF4F7;}
	.st68{fill:#893015;}
	.st69{fill:#89410B;}
	.st70{fill:#899BA3;}
	.st71{fill:#EDE3B9;}
	.st72{enable-background:new    ;}
	.st73{fill:#50FF9F;}
	.st74{fill:#EEDCF4;}
	.st75{fill:#EFA37D;}
	.st76{fill:#EFA3CC;}
	.st77{fill:#EFC99A;}
	.st78{fill:#54AF79;}
	.st79{fill:#BA503A;}
	.st80{fill:#BA8663;}
	.st81{fill:#8B4FE0;}
	.st82{fill:#58ED9B;}
	.st83{fill:#BC7DFF;}
	.st84{fill:#8D9AA3;}
	.st85{fill:#BCCAD3;}
	.st86{fill:#8DE4FF;}
	.st87{fill:#20B518;}
	.st88{fill:#BF44F2;}
	.st89{fill:#21CEA1;}
	.st90{fill:#BFDAE0;}
	.st91{fill:#F0FBFC;}
	.st92{fill:#F2D9A7;}
	.st93{fill:#F2EAC9;}
	.st94{fill:#24D1AF;}
	.st95{fill:#25931C;}
	.st96{fill:#F4C4B3;}
	.st97{fill:#F4D3A2;}
	.st98{fill:#F4D647;}
	.st99{fill:#F4D7B8;}
	.st100{fill:#F4EC8E;}
	.st101{fill:#5B524D;}
	.st102{fill:#F77819;}
	.st103{fill:#F79AE1;}
	.st104{fill:#5E707A;}
	.st105{fill:#F93585;}
	.st106{fill:#F95D5D;}
	.st107{fill:#F9C19B;}
	.st108{fill:#F9CB58;}
	.st109{fill:#F9D2B2;}
	.st110{fill:#F9F07D;}
	.st111{fill:#F9F1D2;}
	.st112{fill:#F9F4B7;}
	.st113{fill:#F9F9E4;}
	.st114{fill:#5F1DAA;}
	.st115{fill:#5F9AD6;}
	.st116{fill:#C0C0C4;}
	.st117{fill:#91EA57;}
	.st118{fill:#C12727;}
	.st119{fill:#C191A0;}
	.st120{fill:#923BB7;}
	.st121{fill:#93A0A3;}
	.st122{fill:#93F9EA;}
	.st123{fill:#93FF5A;}
	.st124{fill:#C4833D;}
	.st125{fill:#95A2A5;}
	.st126{fill:#965514;}
	.st127{fill:#96562C;}
	.st128{fill:#2AF42F;}
	.st129{fill:#C5D7DD;}
	.st130{fill:#C68510;}
	.st131{fill:#C6A86D;}
	.st132{fill:#C6BB8D;}
	.st133{fill:#2C9DCE;}
	.st134{fill:#FBFCF2;}
	.st135{fill:#FC70B0;}
	.st136{fill:#FCE6C8;}
	.st137{fill:#FCF7E3;}
	.st138{fill:#C90D6B;}
	.st139{fill:#FDFEFF;}
	.st140{fill:#FDFFDC;}
	.st141{fill:#FF1A1A;}
	.st142{fill:#FF5252;}
	.st143{fill:#FF5B00;}
	.st144{fill:#FF6155;}
	.st145{fill:#FF630D;}
	.st146{fill:#FF6666;}
	.st147{fill:#FF7676;}
	.st148{fill:#FF7900;}
	.st149{fill:#FF860D;}
	.st150{fill:#FF8B00;}
	.st151{fill:#FF8F8F;}
	.st152{fill:#FF900B;}
	.st153{fill:#FF908A;}
	.st154{fill:#FF960B;}
	.st155{fill:#FF9C0D;}
	.st156{fill:#FFA9D4;}
	.st157{fill:#FFAA00;}
	.st158{fill:#FFAD40;}
	.st159{fill:#FFAF10;}
	.st160{fill:#FFB000;}
	.st161{fill:#FFBE08;}
	.st162{fill:#FFBF31;}
	.st163{fill:#FFC200;}
	.st164{fill:#FFCAE8;}
	.st165{fill:#FFCCF5;}
	.st166{fill:#FFD00B;}
	.st167{fill:#FFD039;}
	.st168{fill:#FFD400;}
	.st169{fill:#FFD833;}
	.st170{fill:#FFDB80;}
	.st171{fill:#FFDDD2;}
	.st172{fill:#FFE6D4;}
	.st173{fill:#FFE6EB;}
	.st174{fill:#FFE98D;}
	.st175{fill:#FFECD2;}
	.st176{fill:#FFF1D9;}
	.st177{fill:#FFF24D;}
	.st178{fill:#FFF3C2;}
	.st179{fill:#FFF4C7;}
	.st180{fill:#FFF800;}
	.st181{fill:#FFF80D;}
	.st182{fill:#FFF9DE;}
	.st183{fill:#FFFBD7;}
	.st184{fill:#FFFBEB;}
	.st185{fill:#FFFCC0;}
	.st186{fill:#FFFCDC;}
	.st187{fill:#FFFFFA;}
	.st188{fill:#FFFFFF;}
	.st189{fill:#63797F;}
	.st190{fill:#65E529;}
	.st191{fill:#66310E;}
	.st192{fill:#663C17;}
	.st193{fill:#9A5AE5;}
	.st194{fill:#CA30EF;}
	.st195{fill:#6892FC;}
	.st196{fill:#9CFFC4;}
	.st197{fill:#CC4306;}
	.st198{fill:#CC549E;}
	.st199{fill:#9E3256;}
	.st200{fill:#CDFFBB;}
	.st201{fill:#CE86AF;}
	.st202{fill:#CED9DD;}
	
		.st203{fill:none;stroke:#33363A;stroke-width:3;stroke-linecap:round;stroke-linejoin:round;stroke-miterlimit:10;stroke-dasharray:6;}
	.st204{fill:#CFE1E2;}
	.st205{fill:#33363A;}
	.st206{fill:#34C166;}
	.st207{fill:#364B5B;}
	.st208{fill:#3662CE;}
	.st209{fill:#36C6FF;}
	.st210{fill:#6ADB9A;}
	.st211{fill:#6D5C4D;}
	.st212{fill:#6EBDF9;}
	.st213{fill:#0031FF;}
	.st214{fill:#0062FF;}
	.st215{fill:#0068FF;}
	.st216{fill:#0086FF;}
	.st217{fill:#009BE8;}
	.st218{fill:#00AAFF;}
	.st219{fill:#D271FF;}
	.st220{fill:#D363A9;}
	.st221{fill:#D3964C;}
	.st222{fill:#D3DFE2;}
	.st223{fill:#D3E0E2;}
	.st224{fill:#D3EFF4;}
	.st225{fill:#063B66;}
	.st226{fill:#D60909;}
	.st227{fill:#D61D1D;}
	.st228{fill:#D7F0FF;}
	.st229{fill:#09B285;}
	.st230{fill:#D8D593;}
	.st231{fill:#D8E2EA;}
	.st232{fill:#D8E5EA;}
	.st233{fill:#3E5054;}
	.st234{fill:#D988FF;}
	.st235{fill:#D9E7E8;}
	.st236{fill:#702252;}
	.st237{fill:#70D3E0;}
	.st238{fill:#A02FF2;}
	.st239{fill:#A2F255;}
	.st240{fill:#A35616;}
	.st241{fill:#A3CCCC;}
	.st242{fill:#0A6ADD;}
	.st243{fill:#A5145D;}
	.st244{fill:#A57555;}
	.st245{fill:#77D6FC;}
	.st246{fill:#7815CE;}
	.st247{fill:#A7BBC1;}
	.st248{fill:#DBD279;}
	.st249{fill:#0D5C9E;}
	.st250{fill:#A83C11;}
	.st251{fill:#A8633D;}
	.st252{fill:#A8A3E5;}
	.st253{fill:#DCE6EA;}
	.st254{fill:#DCE7EA;}
	.st255{fill:#A962E8;}
	.st256{fill:#DD2466;}
	.st257{fill:#DDC38A;}
	.st258{fill:#DDD2B1;}
	.st259{fill:#DFE7E8;}
	.st260{fill:#42B1E8;}
	.st261{fill:#436377;}
	.st262{fill:#43B530;}
]]>
</style>
<g>
	<g>
		<g>
			<path class="st188" d="M118.201,55.734h-14.988c-0.588-1.782-1.316-3.498-2.154-5.153l10.613-10.611
				c4.595-4.596,4.595-12.046,0-16.643c-4.597-4.594-12.047-4.594-16.643,0L84.42,33.94c-1.656-0.836-3.371-1.565-5.154-2.155
				V16.799c0-6.5-5.268-11.767-11.766-11.767c-6.5,0-11.768,5.267-11.768,11.767v14.985c-1.781,0.59-3.496,1.319-5.15,2.155
				L39.971,23.327c-4.597-4.594-12.048-4.594-16.643,0c-4.595,4.597-4.595,12.047,0,16.643l10.613,10.611
				c-0.838,1.652-1.565,3.369-2.156,5.153H16.797C10.3,55.734,5.031,61,5.031,67.501c0,6.497,5.269,11.765,11.768,11.765h14.986
				c0.589,1.783,1.316,3.498,2.154,5.15L23.328,95.03c-4.595,4.598-4.595,12.049,0,16.641c2.299,2.299,5.311,3.448,8.322,3.448
				c3.01,0,6.021-1.149,8.32-3.448l10.609-10.611c1.654,0.839,3.371,1.562,5.152,2.156v14.986c0,6.497,5.268,11.766,11.768,11.766
				c6.498,0,11.766-5.269,11.766-11.766v-14.986c1.783-0.594,3.498-1.317,5.154-2.156l10.611,10.611
				c2.299,2.299,5.309,3.448,8.32,3.448s6.023-1.149,8.32-3.448c4.597-4.596,4.595-12.048,0-16.641L101.059,84.42
				c0.838-1.656,1.566-3.371,2.154-5.154l14.99-0.002c6.497,0,11.766-5.27,11.766-11.765C129.967,61,124.698,55.732,118.201,55.734z
				 M81.59,67.5c0,7.769-6.32,14.091-14.09,14.091S53.408,75.268,53.408,67.5c0-7.771,6.322-14.092,14.092-14.092
				S81.59,59.729,81.59,67.5z"/>
		</g>
		<g>
			<path class="st232" d="M84.42,101.059l10.611,10.611c2.299,2.299,5.309,3.448,8.32,3.448s6.023-1.149,8.32-3.448
				c0.876-0.875,1.581-1.854,2.123-2.898c-0.542-1.041-1.247-2.023-2.123-2.899l-10.613-10.609c0.838-1.655,1.566-3.371,2.154-5.153
				h3.537l-5.691-5.689c0.838-1.656,1.566-3.371,2.154-5.154l14.99-0.002c4.539,0,8.473-2.576,10.435-6.342
				c-1.962-3.771-5.896-6.347-10.437-6.347h-14.988c-0.588-1.782-1.316-3.497-2.154-5.153l5.691-5.688h-3.537
				c-0.588-1.782-1.316-3.498-2.154-5.153l10.613-10.611c0.875-0.875,1.581-1.855,2.123-2.899c-0.542-1.042-1.248-2.021-2.123-2.897
				c-4.597-4.598-12.047-4.598-16.643,0L84.42,44.782c-1.656-0.836-3.371-1.562-5.154-2.153V31.785v-4.144
				c0-6.498-5.268-11.766-11.766-11.766c-6.5,0-11.768,5.268-11.768,11.766v4.144v10.844c-1.781,0.591-3.496,1.317-5.15,2.153
				L39.971,34.172c-4.597-4.598-12.048-4.598-16.643,0c-0.875,0.876-1.581,1.855-2.123,2.897c0.542,1.044,1.248,2.024,2.123,2.899
				l10.613,10.611c-0.838,1.652-1.565,3.369-2.156,5.153h-3.536l5.692,5.688c-0.838,1.654-1.565,3.369-2.156,5.153H16.797
				c-4.541,0-8.475,2.579-10.436,6.347c1.961,3.766,5.896,6.344,10.438,6.344h14.986c0.589,1.783,1.316,3.498,2.154,5.15
				l-5.692,5.693h3.538c0.589,1.782,1.316,3.498,2.154,5.151l-10.611,10.611c-0.875,0.876-1.581,1.858-2.123,2.899
				c0.542,1.044,1.248,2.023,2.123,2.898c2.299,2.299,5.311,3.448,8.322,3.448c3.01,0,6.021-1.149,8.32-3.448l10.609-10.611
				c1.654,0.839,3.371,1.562,5.152,2.156v10.842v4.145c0,6.497,5.268,11.766,11.768,11.766c6.498,0,11.766-5.269,11.766-11.766
				v-4.145v-10.842C81.049,102.622,82.764,101.898,84.42,101.059z M67.5,89.43c-7.77,0-14.092-3.318-14.092-11.088
				c0-1.921,0.389-3.75,1.088-5.42c-0.699-1.67-1.088-3.502-1.088-5.423c0-7.771,6.322-14.092,14.092-14.092
				S81.59,59.729,81.59,67.5c0,1.921-0.389,3.753-1.088,5.423c0.699,1.67,1.088,3.499,1.088,5.42
				C81.59,86.112,75.27,89.43,67.5,89.43z"/>
		</g>
		<g>
			<path class="st205" d="M67.5,131.467c-7.315,0-13.268-5.951-13.268-13.266V104.28c-1.129-0.413-2.249-0.881-3.35-1.402
				l-9.852,9.853c-2.507,2.507-5.839,3.888-9.381,3.888c-3.544,0-6.876-1.381-9.383-3.888c-5.173-5.169-5.173-13.586,0-18.762
				l9.854-9.855c-0.526-1.11-0.996-2.23-1.402-3.348h-13.92c-7.315,0-13.268-5.951-13.268-13.265
				c0-7.316,5.951-13.268,13.266-13.268h13.922c0.409-1.121,0.878-2.242,1.403-3.351l-9.854-9.854
				c-5.172-5.172-5.172-13.59,0-18.764c2.506-2.505,5.837-3.885,9.381-3.885s6.876,1.379,9.383,3.884l9.854,9.856
				c1.114-0.527,2.233-0.997,3.347-1.403V16.799c0-7.315,5.952-13.267,13.268-13.267c7.314,0,13.266,5.951,13.266,13.267v13.919
				c1.112,0.406,2.233,0.875,3.351,1.404l9.853-9.856c2.506-2.505,5.838-3.885,9.382-3.885c3.543,0,6.875,1.379,9.382,3.884
				c5.172,5.174,5.172,13.592,0,18.764l-9.855,9.854c0.527,1.114,0.997,2.235,1.403,3.351h13.921
				c7.315,0,13.266,5.951,13.268,13.265c0,7.314-5.951,13.265-13.266,13.265l-13.923,0.002c-0.406,1.115-0.875,2.236-1.403,3.351
				l9.855,9.852c2.506,2.505,3.886,5.836,3.887,9.38c0,3.544-1.38,6.876-3.887,9.382c-2.505,2.507-5.836,3.888-9.381,3.888
				c-3.542,0-6.874-1.381-9.381-3.888l-9.854-9.854c-1.104,0.522-2.225,0.991-3.352,1.403v13.921
				C80.766,125.516,74.814,131.467,67.5,131.467z M50.58,99.559c0.23,0,0.463,0.053,0.679,0.162c1.61,0.816,3.274,1.513,4.948,2.071
				c0.612,0.204,1.025,0.777,1.025,1.423v14.986c0,5.661,4.606,10.266,10.268,10.266c5.66,0,10.266-4.605,10.266-10.266v-14.986
				c0-0.646,0.413-1.219,1.026-1.423c1.667-0.555,3.333-1.252,4.95-2.071c0.578-0.292,1.28-0.181,1.738,0.278l10.611,10.611
				c1.94,1.94,4.519,3.009,7.26,3.009c2.743,0,5.321-1.068,7.259-3.008c1.94-1.94,3.009-4.519,3.009-7.261
				c-0.001-2.743-1.068-5.32-3.008-7.258L99.998,85.481c-0.458-0.458-0.57-1.16-0.278-1.738c0.833-1.646,1.529-3.311,2.068-4.947
				c0.203-0.615,0.777-1.03,1.425-1.03l14.99-0.002c5.66,0,10.266-4.604,10.266-10.265c-0.002-5.66-4.606-10.266-10.264-10.266
				h-14.992c-0.647,0-1.222-0.416-1.425-1.03c-0.54-1.638-1.236-3.302-2.067-4.946c-0.293-0.578-0.182-1.28,0.277-1.738
				l10.613-10.611c4.002-4.003,4.002-10.518,0-14.521c-1.939-1.938-4.519-3.006-7.261-3.006c-2.743,0-5.321,1.068-7.261,3.006
				L85.48,35c-0.458,0.459-1.158,0.57-1.736,0.278c-1.652-0.833-3.317-1.53-4.949-2.07c-0.614-0.204-1.029-0.777-1.029-1.424V16.799
				c0-5.661-4.605-10.267-10.266-10.267c-5.661,0-10.268,4.605-10.268,10.267v14.985c0,0.647-0.414,1.221-1.028,1.424
				c-1.634,0.541-3.298,1.238-4.945,2.07C50.683,35.571,49.98,35.46,49.521,35L38.91,24.387c-1.939-1.938-4.519-3.006-7.262-3.006
				c-2.742,0-5.321,1.067-7.26,3.006c-4.002,4.004-4.002,10.519,0,14.521L35.002,49.52c0.459,0.458,0.57,1.16,0.277,1.739
				c-0.826,1.63-1.523,3.294-2.07,4.947c-0.203,0.614-0.777,1.028-1.424,1.028H16.797c-5.66,0-10.266,4.606-10.266,10.268
				c0,5.66,4.606,10.265,10.268,10.265h14.986c0.647,0,1.222,0.415,1.425,1.03c0.543,1.645,1.238,3.308,2.067,4.942
				c0.293,0.579,0.182,1.28-0.277,1.739L24.389,96.09c-4.003,4.005-4.003,10.519,0,14.519c1.94,1.941,4.52,3.009,7.262,3.009
				c2.741,0,5.319-1.068,7.26-3.009L49.52,99.999C49.808,99.71,50.191,99.559,50.58,99.559z M67.5,83.09
				c-8.598,0-15.592-6.994-15.592-15.591c0-8.597,6.994-15.592,15.592-15.592c8.597,0,15.59,6.995,15.59,15.592
				C83.09,76.096,76.097,83.09,67.5,83.09z M67.5,54.908c-6.943,0-12.592,5.648-12.592,12.592c0,6.942,5.648,12.591,12.592,12.591
				c6.942,0,12.59-5.648,12.59-12.591C80.09,60.556,74.442,54.908,67.5,54.908z"/>
		</g>
	</g>
	<g>
		<g>
			<circle class="st125" cx="67.5" cy="67.499" r="21.931"/>
		</g>
		<g>
			<ellipse class="st45" cx="67.5" cy="67.499" rx="21.931" ry="16.799"/>
		</g>
		<g>
			<path class="st188" d="M45.569,67.499c0,12.113,9.819,21.932,21.931,21.932s21.931-9.818,21.931-21.932H45.569z"/>
		</g>
		<g>
			<path class="st232" d="M67.5,84.297c12.111,0,21.931-7.521,21.931-16.799H45.569C45.569,76.776,55.389,84.297,67.5,84.297z"/>
		</g>
		<g>
			<path class="st205" d="M67.5,90.93c-12.92,0-23.431-10.511-23.431-23.432c0-12.919,10.511-23.43,23.431-23.43
				s23.431,10.511,23.431,23.43C90.931,80.419,80.42,90.93,67.5,90.93z M67.5,47.069c-11.266,0-20.431,9.165-20.431,20.43
				c0,11.266,9.165,20.432,20.431,20.432s20.431-9.166,20.431-20.432C87.931,56.233,78.766,47.069,67.5,47.069z"/>
		</g>
		<g>
			<path class="st205" d="M89.431,68.999H45.569c-0.828,0-1.5-0.671-1.5-1.5s0.672-1.5,1.5-1.5h43.861c0.828,0,1.5,0.671,1.5,1.5
				S90.259,68.999,89.431,68.999z"/>
		</g>
		<g>
			<g>
				<circle class="st247" cx="67.5" cy="70.011" r="7.251"/>
			</g>
			<g>
				<circle class="st188" cx="67.5" cy="67.546" r="7.251"/>
			</g>
			<g>
				<path class="st232" d="M62.373,72.674c-2.832-2.832-2.832-7.424,0-10.256s7.423-2.832,10.254,0"/>
			</g>
			<g>
				<path class="st205" d="M67.5,76.297c-2.337,0-4.534-0.91-6.188-2.562c-3.412-3.413-3.412-8.965,0-12.377
					c1.653-1.653,3.851-2.563,6.188-2.563c2.338,0,4.535,0.911,6.188,2.563c3.412,3.412,3.412,8.965,0,12.377
					C72.035,75.387,69.838,76.297,67.5,76.297z M67.5,61.794c-1.536,0-2.979,0.598-4.066,1.685c-2.242,2.243-2.242,5.892,0,8.135
					c1.086,1.085,2.53,1.683,4.066,1.683s2.98-0.598,4.066-1.684c2.242-2.242,2.242-5.892,0-8.134
					C70.48,62.393,69.036,61.794,67.5,61.794z"/>
			</g>
		</g>
	</g>
</g>
</svg>
